<?xml version="1.0" encoding="utf-8"?>
<!-- Generator: Adobe Illustrator 16.0.0, SVG Export Plug-In . SVG Version: 6.00 Build 0)  -->
<!DOCTYPE svg PUBLIC "-//W3C//DTD SVG 1.1//EN" "http://www.w3.org/Graphics/SVG/1.1/DTD/svg11.dtd">
<svg version="1.1" id="Layer_1" xmlns="http://www.w3.org/2000/svg" xmlns:xlink="http://www.w3.org/1999/xlink" x="0px" y="0px"
	 width="612px" height="792px" viewBox="0 0 612 792" enable-background="new 0 0 612 792" xml:space="preserve">
<g>
	<g>
		<path fill="#FDFDFD" d="M193,709c-12.167,0-24.334-0.069-36.5,0.064c-2.15,0.022-2.948-0.412-2.52-2.568
			c0.127-0.642,0.02-1.329,0.02-1.996c0-205,0.012-410-0.094-615c-0.002-3.749,0.833-4.679,4.596-4.604
			C171.664,85.163,184.833,85,198,85c0.346,0.479,0.312,0.93-0.101,1.353c-5.794,1.974-11.792,3.416-17.063,6.747
			c-9.327,5.892-15.04,14.327-17.758,24.918c-0.496,1.931-0.948,3.872-1.454,5.814c-0.317,2.002-0.195,4.005-0.195,6
			c-0.008,177.192-0.007,354.385-0.004,531.578c0,1.831-0.032,3.664,0.114,5.475c0.489,5.009,1.483,9.931,3.042,14.731
			c-0.299,2.436,1.072,3.945,2.909,5.199c2.908,4.397,6.942,7.736,10.673,11.354c0.715,1,1.462,1.968,2.709,2.374
			c0.372,0.192,0.712,0.428,1.032,0.693c0.981,0.995,2.345,0.853,3.55,1.183c2.005,0.658,4.092,1.097,5.908,2.252
			C192.414,705.921,194.299,706.861,193,709z"/>
		<path fill="#FBFBFB" d="M193,709c-0.667-1.298-1.334-2.596-2.001-3.894c1.028-1.108,2.374-1.028,3.715-1.016
			c65.322,0.707,130.647,0.116,195.97,0.305c9.332,0.027,18.666,0.066,27.998-0.012c19.698-0.166,37.021-17.142,37.688-36.867
			c0.051-1.499,0.031-2.999,0.031-4.499c0.001-177.98-0.021-355.963,0.063-533.943c0.005-8.606-1.746-16.47-6.348-23.754
			c-5.76-9.118-14.254-14.237-24.369-17.097c-1.756-0.496-3.627-0.614-5.243-1.58c-0.63-0.405-0.798-0.955-0.505-1.644
			c12.5,0,25,0.067,37.5-0.064c2.15-0.022,2.947,0.412,2.52,2.568c-0.127,0.642-0.02,1.329-0.02,1.996c0,205-0.012,410,0.094,615
			c0.002,3.749-0.844,4.601-4.594,4.595C368,708.973,280.5,709,193,709z"/>
		<path fill="#9E9E9C" d="M420,85c-0.015,0.294,0.014,0.583,0.085,0.868c-2.616,2.548-5.946,1.751-9.011,1.753
			c-62.896,0.052-125.793,0.038-188.689,0.037c-5.99,0-11.981,0.063-17.97-0.036c-2.287-0.038-4.729,0.246-6.507-1.769
			c0.091-0.278,0.122-0.563,0.092-0.854C272,85,346,85,420,85z"/>
		<path fill="#232322" d="M197.908,85.854c2.655,0.047,5.311,0.135,7.967,0.135c70.408,0.009,140.817,0.009,211.225,0.004
			c0.995,0,1.99-0.081,2.985-0.124c20.576,1.249,37.417,18.611,38.025,39.26c0.111,3.83,0.042,7.666,0.042,11.499
			c0.003,175.328,0.005,350.655,0.005,525.983c0,26.376-17.358,43.758-43.797,43.767c-69.664,0.021-139.329,0.001-208.993,0.02
			c-4.836,0.002-9.623-0.372-14.368-1.289c-2.228-0.303-4.396-0.781-6.283-2.101c-1.154-0.813-2.921-0.566-3.653-2.112l0.032,0.02
			c-1.203-0.29-2.406-0.581-3.096-1.771c-4.043-3.768-8.631-7.031-11.224-12.141c-1.797-1.101-2.013-3.114-2.778-4.812
			c-2.028-4.172-2.375-8.745-3.173-13.213c-0.58-1.791-0.295-3.638-0.295-5.455c-0.015-178.689-0.015-357.379,0.002-536.068
			c0-1.813-0.332-3.663,0.343-5.44c3.561-18.548,14.077-30.714,32.617-35.479C194.926,86.166,196.434,86.074,197.908,85.854z"/>
		<path fill="#FBFBFB" d="M160.874,122.015c0.008,18.33,0.022,36.66,0.024,54.99c0.016,163.494,0.029,326.988,0.038,490.482
			c0,0.498-0.073,0.995-0.112,1.492c-1.386-1.586-0.802-3.508-0.802-5.278c-0.027-178.812-0.027-357.621,0.001-536.433
			C160.022,125.504,159.417,123.572,160.874,122.015z"/>
		<path fill="#FBFBFB" d="M163.996,682.191c1.553,1.241,2.178,3.02,2.778,4.812C163.857,686.549,163.138,684.826,163.996,682.191z"
			/>
		<path fill="#FBFBFB" d="M181.063,700.896c1.383,0.418,2.804,0.771,3.653,2.111C182.79,703.528,180.947,703.904,181.063,700.896z"
			/>
		<path fill="#FBFBFB" d="M171.719,700.092c-0.491-0.702-0.932-1.138-1.085-1.658c-0.055-0.187,0.583-0.577,0.906-0.876
			c0.384,0.438,0.857,0.834,1.101,1.341C172.717,699.058,172.181,699.514,171.719,700.092z"/>
		<path fill="#FBFBFB" d="M179.381,704.278c1.321,0.03,1.063,0.792,1.003,1.343c-0.043,0.395-0.299,0.766-0.46,1.146
			c-0.455-0.383-1.178-0.703-1.283-1.167C178.55,705.201,179.159,704.641,179.381,704.278z"/>
		<path fill="#FBFBFB" d="M177.999,699.144c1.395-0.045,2.257,0.843,3.096,1.771C179.068,702.063,178.187,701.21,177.999,699.144z"
			/>
		<path fill="#111213" d="M444.999,155c0.335,0.33,0.671,0.659,1.007,0.989c0.906,1.733,0.457,3.602,0.457,5.4
			c0.024,156.736,0.024,313.473,0,470.208c0,1.798,0.454,3.667-0.463,5.398c-1.798,1.123-3.803,1.009-5.803,1.009
			c-87.012-0.007-174.021-0.002-261.032-0.031c-1.755-0.001-3.701,0.625-5.195-0.957c0.309-0.959,0.963-1.499,1.964-1.633
			c0.627-0.046,1.244-0.001,1.859,0.118c46.101,0.19,92.197,0.034,138.294,0.068c1.658,0.001,3.345,0.096,4.841-0.848
			c2.778-1.36,5.774-1.215,8.747-1.252c12.06-0.153,24.12,0.283,36.172-0.189c2.502-0.474,4.604,1.552,7.098,1.138
			c2.495-1.035,5.045-1.061,7.746-1.017c7.581,0.123,15.229,1.144,22.736-0.787c2.412-0.62,4.488,0.979,6.812,0.77
			c3.812,1.22,7.703,1.455,11.66,0.988c4.633-0.637,9.266-1.021,13.946-1.033c5.188-0.015,5.571-0.502,5.563-5.855
			c-0.045-30.991-0.009-61.982-0.018-92.975c-0.006-22.327-0.017-44.653,0.013-66.979c0.003-1.998-0.004-4.004,0.582-5.951
			c0.187-0.627,0.463-1.211,0.805-1.764c1.08-2.023,0.774-4.229,0.774-6.371c0.019-96.199,0.015-192.398,0.006-288.598
			c-0.001-1.82,0.214-3.671-0.497-5.419c-0.271-0.531-0.502-1.085-0.734-1.634C441.295,155.041,441.926,153.856,444.999,155z"/>
		<path fill="#0F1114" d="M175.019,635.959c-0.349,0.353-0.699,0.705-1.048,1.058c-0.327-0.337-0.654-0.675-0.98-1.012
			c-0.396-2.47-0.49-4.953-0.49-7.455c0.016-155.551,0.012-311.103,0.039-466.653c0-1.963-0.484-3.996,0.46-5.898V156
			c1.723-0.345,3.931-2.002,4.219,1.56c-0.624,3.801-0.567,7.635-0.567,11.467c0.002,152.271,0.008,304.542-0.034,456.813
			C176.616,629.253,177.467,632.893,175.019,635.959z"/>
		<path fill="#121114" d="M176.999,156.971c-1.067-1.422-2.622-0.833-4-0.972c1.696-2.067,4.04-1.996,6.396-1.996
			c86.971,0.009,173.942,0.005,260.914,0.028c1.599,0.001,3.377-0.549,4.69,0.969c-1.231,0.091-3.115-0.478-1.999,1.981
			c-2.688,2.392-6,1.64-9.08,1.642c-63.794,0.048-127.588,0.035-191.381,0.035c-19.155-0.001-38.31,0.029-57.464-0.031
			C182.31,158.618,179.345,159.187,176.999,156.971z"/>
		<path fill="#121114" d="M172.999,155.998c0,157.125,0.011,314.249-0.076,471.374c-0.001,2.877,1.231,5.757,0.067,8.633
			c-1.604-1.489-0.96-3.439-0.961-5.193c-0.026-156.541-0.025-313.084,0.007-469.626
			C172.036,159.436,171.373,157.479,172.999,155.998z"/>
		<path fill="#121414" d="M446,636.997c0.002-160.336,0.004-320.672,0.006-481.008c1.615,1.484,0.963,3.438,0.964,5.188
			c0.03,156.879,0.031,313.757,0.003,470.636C446.972,633.563,447.632,635.521,446,636.997z"/>
		<path fill="#5B5E5D" d="M284.902,669.391c-0.011-13.952,10.246-24.367,24.028-24.396c13.42-0.027,24.516,10.761,24.527,23.707
			c0.016,15.644-11.883,24.946-24.296,25.026C294.519,693.822,283.745,681.068,284.902,669.391z"/>
		<path fill="#262428" d="M449.861,158.344c0,98.107,0,196.215,0,294.321c-0.167,0.001-0.334,0.001-0.5,0.001
			c0-98.177,0-196.354,0-294.53C449.527,158.205,449.694,158.274,449.861,158.344z"/>
		<path fill="#5B5E5D" d="M309.742,122.021c-6.484,0.001-12.969,0.059-19.451-0.04c-1.611-0.024-4.175,0.849-4.107-2.097
			c0.058-2.52,2.363-1.847,3.867-1.853c13.3-0.052,26.601-0.051,39.901,0.004c1.5,0.006,3.811-0.667,3.858,1.857
			c0.058,2.944-2.512,2.061-4.118,2.085C323.043,122.077,316.393,122.02,309.742,122.021z"/>
		<path fill="#555858" d="M260.298,122.884c-1.55-0.297-2.827-1.174-2.88-2.802c-0.053-1.651,1.204-2.723,2.793-2.873
			c1.801-0.171,2.679,1.032,2.725,2.729C262.981,121.64,262.146,122.712,260.298,122.884z"/>
		<path fill="#262A33" d="M176.999,156.971c88.667,0.004,177.334,0.008,266.001,0.011c0.313,0.021,0.627,0.031,0.941,0.03
			c1.032,1.703,0.518,3.582,0.519,5.37c0.028,97.745,0.028,195.49,0,293.236c-0.001,1.788,0.513,3.666-0.517,5.371
			c-0.313-0.014-0.625-0.019-0.938-0.018c-6.229-4.968-11.466-10.979-17.172-16.49c-13.387-12.929-26.452-26.189-39.686-39.277
			c-18.81-18.604-37.476-37.35-56.153-56.082c-5.609-5.625-10.565-11.984-17.406-16.305c-5.56-6.029-5.439-5.957-9.796,1.296
			c-4.261,7.097-7.35,14.936-13.155,21.071c-0.357,0.347-0.826,0.878-1.21,0.784c-2.969-0.723-0.626,1.11-0.838,1.69
			c0.013,0.463-0.08,0.904-0.286,1.321c-2.6,1.037-2.431,3.381-2.606,5.563c-3.02,7.821-7.865,14.674-11.682,22.073
			c-8.292,14.23-16.493,28.514-24.728,42.773c-1.165,1.337-1.17,2.769-0.33,4.264c2.677,4.711,7.045,7.883,10.651,11.742
			c5.631,5.744,11.342,11.41,17.073,17.058c10.668,10.372,20.578,21.521,31.996,31.127c4.754,5.829,10.479,10.699,15.767,16.002
			c1.807,1.813,4.037,2.137,6.436,2.139c1.99,0.002,4.033-0.236,5.931,0.554c1.236,0.515,2.104,1.287,0.499,2.472
			c-0.304,0.146-0.607,0.3-0.934,0.352c-8.909,1.4-8.953,1.399-8.89,10.792c0.027,4.15-0.368,8.317,0.376,12.438
			c0.668,2.596,2.785,4.093,4.526,5.838c28.593,28.626,57.222,57.216,85.778,85.876c1.637,1.643,4.314,2.83,3.78,5.938
			c-3.696-0.417-7.779,1.314-10.961-1.972c-2.341-0.749-3.793-2.641-5.429-4.272c-34.83-34.813-69.647-69.639-104.476-104.452
			c-1.519-1.519-2.835-3.303-4.991-4.043c-2.04-1.442-2.804-4.123-5.205-5.243c-4.143-1.934-8.333-2.606-12.304,0.137
			c-4.039,2.79-5.454,6.952-5.137,11.73c0.224,3.369,1.844,6.336,2.94,9.45c-0.278,1.038,0.431,2.352-0.847,3.123
			c-4.01-0.51-6.028-3.825-8.55-6.298c-5.302-5.195-10.419-10.578-16.557-16.029c-0.293,6.323,0.067,11.933-0.251,17.512
			c-0.091,1.602,0.965,4.64-2.77,3.954c-1.613-4.875-0.502-9.902-0.811-14.853c-0.163-2.611,0.305-5.283-0.704-8.434
			c-2.039,1.813-1.186,4.065-1.993,5.686c-1.215,2.402-2.73,1.072-3.811,0.061c-1.511-1.416-3.199-1.907-5.15-1.927
			c-2.202-1.415-2.986-5.602-6.477-4.25c-3.682,1.428-1.949,5.166-1.996,7.857c-0.087,5.065-0.643,10.177,0.461,15.21
			c1.905,4.041,5.507,6.669,8.544,9.628c27.866,27.148,54.841,55.189,82.665,82.378c1.069,1.044,2.218,2.063,2.773,3.492
			c0.861,2.218-0.741,2.041-2.116,2.063c-45.468-0.005-90.918,0.007-136.369-0.021c-1.802-0.002-3.664,0.422-5.409-0.431
			c-0.334-0.024-0.668-0.051-1.002-0.074c-0.005-157.871-0.016-315.741,0.041-473.61
			C175.061,160.48,173.726,157.796,176.999,156.971z"/>
		<path fill="#131416" d="M337.017,513.833c-0.891-0.957-2.115-1.123-3.224-0.896c-6.834,1.396-11.582-1.918-15.906-6.62
			c-3.449-3.75-7.16-7.261-10.764-10.866c-0.607-0.606-0.514-1.113,0.109-1.61c5.495-4.401,10.305-9.524,15.232-14.524
			c12.381-12.299,24.714-24.643,36.997-37.034c9.383-9.151,9.396-9.16,2.984-20.788c-2.313-4.19-4.66-8.365-7.244-12.403
			c-9.965-16.91-19.038-34.319-29.54-50.941c-4.485-7.1-8.131-14.865-12.108-22.355c-0.609-1.15-1.262-2.392-0.577-3.784
			c5.262,1.305,7.862,6.043,11.224,9.443c21.288,21.538,42.583,43.064,64.341,64.134c9.973,9.656,19.588,19.68,29.438,29.463
			c6.783,6.735,13.686,13.354,20.554,20.002c1.806,1.748,3.546,3.523,4.474,5.924c-0.002,55.142-0.006,110.282-0.004,165.424
			c0,8.604,0.006,8.811-8.688,8.52c-4.541-0.15-8.881,1.165-13.365,1.064c-1.191-1.369-2.304-2.815-3.582-4.097
			c-29.23-29.255-58.481-58.488-87.715-87.741c-1.282-1.283-2.432-2.7-3.642-4.056c2.558-1.535,4.173-3.494,3.834-6.783
			c-0.166-1.604,0.183-3.458,2.271-3.894c1.914-0.396,3.011,0.942,4.117,2.22c2.167,2.502,2.79,6.614,7.695,6.979
			c-1.239-1.897-2.311-3.475-3.423-4.989c-2.058-2.806-2.616-5.271-0.291-8.492C343.021,521.24,342.255,519.461,337.017,513.833z"/>
		<path fill="#131416" d="M319.957,635.979c-6.105-6.274-12.158-12.604-18.328-18.813c-11.79-11.869-23.612-23.707-35.484-35.494
			c-13.147-13.055-26.371-26.03-39.53-39.073c-0.687-0.68-1.077-1.657-1.606-2.497c3.357-2.747,2.458-6.572,2.654-10.163
			c0.149-2.72-1.145-6.94,1.742-7.649c3.187-0.781,4.162,3.569,5.72,6.012c0.713,1.118,1.381,2.307,1.843,3.538
			c1.744,4.651,5.479,6.779,9.907,8.1c2.133-1.451,1.112-3.647,1.152-5.494c0.133-6.135,0.05-12.272,0.05-19.66
			c4.648,4.53,8.536,8.425,12.542,12.193c4.715,4.438,8.674,9.717,14.376,13.07c2.254,0.689,3.166,2.852,4.651,4.354
			c14.461,14.637,29.17,29.025,43.751,43.541c13.4,13.341,26.379,27.121,40.301,39.939c1.77,1.629,4.145,3.027,3.329,6.108
			c-1.644,1.134-3.219,1.33-5.397,1.265c-12.638-0.378-25.293-0.202-37.94-0.153c-0.564,0.002-1.125,0.587-1.688,0.899
			C321.313,636.569,320.633,636.569,319.957,635.979z"/>
		<path fill="#131416" d="M295.86,521.25c1.461-1.584,2.034,0.207,2.672,0.844c36.913,36.859,73.792,73.753,110.665,110.654
			c0.342,0.342,0.528,0.836,0.79,1.259c-10.378,0.875-20.823,1.893-31.137,0.472c-2.786-0.384-3.662,2.398-5.877,1.513
			c-5.464-3.106-9.132-8.227-13.436-12.532c-14.575-14.583-29.086-29.238-43.769-43.71c-11.839-11.671-23.31-23.708-35.29-35.234
			c-1.346-1.295-4.014-2.469-1.913-5.196c1.731-0.809,3.587-0.619,5.409-0.7c6.65-0.298,9.963-3.521,10.591-10.163
			C294.798,526.024,294.05,523.4,295.86,521.25z"/>
		<path fill="#272930" d="M278.016,540.148c12.022,12.102,24.031,24.218,36.072,36.301c9.441,9.475,18.934,18.897,28.381,28.365
			c9.461,9.479,18.9,18.979,28.328,28.491c0.809,0.814,1.456,1.785,2.178,2.685c-2.301,0.276-4.039-1.117-5.948-2.001
			c-1.166-3.564-4.425-5.299-6.851-7.74c-13.662-13.75-27.344-27.479-41.086-41.15c-13.279-13.208-26.629-26.346-39.976-39.485
			c-1.678-1.652-3.224-3.357-4.12-5.567c-0.157-0.753-1.021-1.604,0.298-2.154C276.871,537.835,277.74,538.634,278.016,540.148z"/>
		<path fill="#121114" d="M443.943,460.989c0-101.326-0.001-202.651-0.002-303.979c1.728,1.431,1.027,3.404,1.028,5.144
			c0.033,97.896,0.033,195.794,0,293.689C444.97,457.583,445.667,459.556,443.943,460.989z"/>
		<path fill="#0C1017" d="M319.957,635.979c0.682,0.008,1.361,0.015,2.043,0.021c-1.475,1.63-3.428,0.971-5.174,0.972
			c-45.206,0.036-90.412,0.036-135.618,0c-1.748-0.001-3.696,0.655-5.188-0.938C224,636.016,271.979,635.997,319.957,635.979z"/>
		<path fill="#232322" d="M309.19,691.024c-12.482,0.021-22.121-9.247-22.164-21.414c-0.044-12.577,9.263-22.346,22.55-22.175
			c11.834,0.151,21.266,9.23,21.399,21.809C331.107,681.425,321.494,691.001,309.19,691.024z"/>
		<path fill="#A2EFEC" d="M360.09,443.083c-11.973,12.712-24.332,25.037-37.041,37.012c-2.735-1.12-3.753-3.718-4.844-6.063
			c-6.651-14.307-13.735-28.408-20.225-42.79c-0.521-1.154-0.55-2.973-2.106-3.094c-1.592-0.125-1.886,1.663-2.45,2.771
			c-4.367,8.581-8.737,17.161-13.03,25.78c-1.224,2.457-2.282,5.255-5.35,6.214c-6.057-5.303-11.676-11.044-17.079-17.003
			c-1.38-1.879-0.412-3.521,0.679-4.989c8.976-12.085,17.583-24.448,27.143-36.094c2.638-0.347,3.347,1.782,4.129,3.491
			c1.372,2.998,3.067,5.838,4.301,8.9c0.3,0.746,0.521,1.736,1.45,1.844c1.251,0.144,1.52-1.035,1.934-1.881
			c1.882-3.852,3.773-7.697,5.704-11.527c1.898-3.356,4.312-2.31,6.738-0.748c5.611,3.605,10.697,7.935,16.101,11.832
			c10.938,7.89,21.969,15.668,32.566,24.023C359.463,441.356,360.5,441.793,360.09,443.083z"/>
		<path fill="#41DFD7" d="M312.978,332.007c13.123,23.157,26.255,46.31,39.358,69.478c1.381,2.441,2.606,4.971,3.904,7.459
			c-1.851,1.512-3.477,0.25-5.035-0.524c-9.938-4.94-19.905-9.819-29.761-14.925c-5.854-3.031-7.614-2.465-10.572,3.265
			c-1.341,2.599-2.247,5.634-5.563,6.593c-2.377-0.52-3.933-2.405-5.907-3.596c-3.054-1.84-5.579-1.6-7.881,1.256
			c-1.396,1.731-2.492,4.178-5.505,3.295c-1.921-2.154-2.796-4.906-3.846-7.471c-2.024-4.943-5.058-8.714-10.063-10.76
			c3.979-7.324,7.958-14.648,11.937-21.973c0.835-1.778,0.458-4.242,2.893-5.116c0.238-0.123,0.326-0.315,0.264-0.576
			c0.067-1.413,1.137-2.299,1.792-3.402c5.513-7.861,9.786-16.459,14.66-24.7c3.465-5.86,4.516-5.846,8.12,0.179
			C312.1,331.037,312.572,331.502,312.978,332.007z"/>
		<path fill="#BEF4F2" d="M275.043,462.913c7.222-10.659,11.577-22.836,17.983-33.926c0.786-1.36,0.943-3.599,3.007-3.555
			c2.23,0.05,1.878,2.426,2.539,3.814c5.736,12.054,11.405,24.139,17.123,36.202c2.339,4.937,4.29,10.069,7.354,14.645
			c-5.01,4.884-8.662,11.329-15.815,13.744c-1.278-0.729-2.794-1.221-3.798-2.225C293.922,482.097,284.495,472.492,275.043,462.913z
			"/>
		<path fill="#7AE8E4" d="M272.106,386.075c5.016,0.181,8.116,2.764,9.708,7.475c1.197,3.543,4.052,6.427,4.205,10.403
			c0.534,0.369,0.536,0.74,0.005,1.113c-4.072,8.386-11.18,14.61-15.997,22.454c-3.84,6.253-9.922,11.03-12.062,18.391
			c-3.947-3.772-8.432-7.044-11.121-11.983c-0.433-1.652-0.669-3.3,0.157-4.912c7.377-12.787,14.746-25.578,22.142-38.354
			C270.055,389.088,271.115,387.602,272.106,386.075z"/>
		<path fill="#FCFCFD" d="M246.875,539.937c-4.856,0.873-7.947-0.896-9.993-5.572c-1.876-4.289-4.625-8.197-7.878-12.026
			c0,4.535-0.222,9.086,0.074,13.604c0.213,3.261-0.949,4.495-4.069,4.161c-2.039-2.987-0.764-6.337-0.952-9.507
			c-0.234-3.952-0.244-7.942,0.033-11.891c0.117-1.672-1.556-4.429,1.36-4.944c2.779-0.491,6.046-1.006,7.437,2.904
			c0.424,1.191,1.41,2.183,2.139,3.268c3.631,2.487,4.931,6.446,6.466,10.258c0.215,0.631,1.067-0.229,0.489,0.102
			c-0.15,0.086-0.247-0.016-0.36-0.271c-1.054-2.396-1.424-4.756,0.32-7.021c0.074-2.318,0.247-4.641,0.194-6.957
			c-0.048-2.103,1.105-2.417,2.826-2.451c1.815-0.037,2.236,0.873,2.212,2.451C247.049,524.004,246.97,531.971,246.875,539.937z"/>
		<path fill="#FBFCFC" d="M278.016,540.148c-0.908-0.753-1.815-1.506-2.723-2.259c-1.92-2.317-3.302-4.863-3.868-7.884
			c-1.412-7.531,1.524-14.073,7.337-16.073c7.266-2.5,13.322,0.092,17.099,7.316c0.106,1.648,0.282,3.295,0.307,4.944
			c0.148,9.867-4.357,14.232-14.224,13.868C280.637,540.016,279.325,540.116,278.016,540.148z"/>
		<path fill="#FBFBFB" d="M337.017,513.833c7.358,3.093,8.471,7.575,3.009,13.585c-1.381,1.519-0.721,2.154,0.003,3.239
			c1.916,2.869,3.815,5.748,5.821,8.772c-4.298,1.564-6.835,0.048-8.45-3.604c-0.332-0.75-0.775-1.484-1.312-2.104
			c-1.209-1.402-1.486-4.413-3.995-3.683c-2.522,0.734-1.339,3.484-1.142,5.142c0.488,4.085-1.283,5.297-4.939,4.906
			c-2.096-5.38-0.746-10.969-0.879-16.448c-0.252-10.324-0.072-10.327,10.407-9.76C336.029,513.905,336.523,513.851,337.017,513.833
			z"/>
		<path fill="#252728" d="M241.94,522.996c0.157,2.741,0.315,5.481,0.548,9.543c-3.367-4.71-5.648-8.515-7.463-12.608
			c0.741-1.57,1.624-1.83,2.937-0.498C239.209,520.698,240.608,521.814,241.94,522.996z"/>
		<path fill="#2A2C3B" d="M286.936,358.986c-0.605,1.908-1.544,3.628-2.894,5.115C283.894,361.767,281.951,358.418,286.936,358.986z
			"/>
		<path fill="#2A2C3B" d="M288.992,355.008c0.155,1.53-0.851,2.449-1.792,3.402c-0.88-1.886-2.02-3.765-0.276-5.708
			C288.911,352.45,285.431,356.671,288.992,355.008z"/>
		<path fill="#212731" d="M280.609,473.676c-2.142-0.159-2.851-1.252-3.398-2.767C279.133,470.897,279.694,472.155,280.609,473.676z
			"/>
		<path fill="#09363B" d="M247.002,429.016c-0.052,1.639-0.104,3.275-0.157,4.913C245.629,432.25,245.49,430.606,247.002,429.016z"
			/>
		<path fill="#7AE8E4" d="M305.037,402.973c2.402-1.691,3.62-4.253,4.754-6.796c3.045-6.826,5.49-7.412,12.246-3.843
			c10.647,5.626,21.496,10.877,32.275,16.252c0.563,0.28,1.28,0.244,1.928,0.355c3.803,6.416,7.711,12.774,11.365,19.273
			c1.811,3.218,1.318,6.447-1.366,9.116c-1.989,1.978-4.097,3.839-6.149,5.751c-10.635-7.801-21.269-15.603-31.904-23.402
			c-6.266-4.595-12.546-9.166-18.791-13.789c-1.877-1.389-3.645-2.385-5.387,0.123C303.225,404.619,302.744,403.326,305.037,402.973
			z"/>
		<path fill="#FCFCFB" d="M376.601,513.603c12.056,0.123,17.725,7.052,14.494,17.716c-1.661,5.482-5.899,8.266-13.093,8.59
			c-8.031,0.362-8.032,0.362-8.04-7.463c-0.004-4.149,0-8.3-0.001-12.45C369.959,513.535,369.959,513.535,376.601,513.603z"/>
		<path fill="#1E1417" d="M333.787,364.25c-1.359-0.905-1.916-1.896-1.44-3.422C334.563,361.253,333.877,362.752,333.787,364.25z"/>
		<path fill="#1F131B" d="M358.234,447.733c0.709,0.758,1.059,1.081,1.032,1.111c-0.386,0.495-0.739,1.105-1.264,1.379
			c-0.658,0.345-0.854-0.211-0.657-0.748C357.567,448.878,357.924,448.329,358.234,447.733z"/>
		<path fill="#1F131B" d="M350.255,459.023c-0.636-0.924-0.953-1.267-0.903-1.331c0.365-0.483,0.729-1.065,1.24-1.314
			c0.508-0.247,0.91,0.119,0.629,0.755C350.956,457.728,350.63,458.296,350.255,459.023z"/>
		<path fill="#1F131B" d="M343.396,465.011c-0.465,0.417-0.866,0.98-1.411,1.218c-0.67,0.294-0.887-0.355-0.609-0.765
			c0.331-0.487,0.934-0.795,1.444-1.142C342.84,464.308,343.129,464.69,343.396,465.011z"/>
		<path fill="#1E171D" d="M327.378,481.047c-0.463,0.401-0.874,0.969-1.423,1.178c-0.658,0.252-0.832-0.419-0.555-0.796
			c0.35-0.478,0.948-0.77,1.44-1.142C326.99,480.497,327.139,480.708,327.378,481.047z"/>
		<path fill="#79E8E2" d="M305.037,402.973c-1.195,0.726-1.011,1.918-1.029,3.041c-1.207,4.68-4.243,8.534-5.873,13.016
			c-0.433,1.189-0.96,2.183-2.249,2.3c-1.802,0.163-1.916-1.545-2.467-2.628c-2.347-4.609-3.504-9.86-7.395-13.635
			c-0.001-0.369-0.003-0.74-0.005-1.111c1.485,0.077,2.395-0.837,3.263-1.857c5.396-6.354,6.939-6.56,13.458-1.627
			C303.628,401.143,304.277,402.13,305.037,402.973z"/>
		<path fill="#4CDAD7" d="M341.277,387.688c0.215,0.801-0.093,1.186-0.607,1.159c-0.354-0.019-1.01-0.53-0.981-0.595
			c0.219-0.528,0.565-1.004,0.875-1.496C340.843,387.123,341.124,387.488,341.277,387.688z"/>
		<path fill="#151517" d="M290.266,526.661c-0.012,5.9-2.128,8.704-6.555,8.684c-4.379-0.021-6.634-2.982-6.631-8.712
			c0.003-5.629,2.349-8.68,6.682-8.69C288.139,517.931,290.277,520.797,290.266,526.661z"/>
		<path fill="#1F1F21" d="M332.424,518.06c2.788,0.207,5.033,0.685,5.163,3.446c0.113,2.396-1.57,3.295-3.852,3.611
			c-2.663,0.368-3.231-0.909-2.896-3.09C331.073,520.507,329.809,518.107,332.424,518.06z"/>
		<path fill="#161617" d="M385.953,526.459c0.13,2.221-0.355,4.322-1.688,6.086c-1.789,2.368-4.487,2.995-7.145,2.443
			c-2.959-0.615-1.173-3.279-1.414-4.977c-0.322-2.271-0.269-4.642-0.031-6.934c0.179-1.711-1.364-4.388,1.648-4.882
			c2.676-0.438,5.354,0.227,7.086,2.624C385.595,522.46,386.051,524.412,385.953,526.459z"/>
	</g>
</g>
</svg>
